<?xml version="1.0" standalone="no"?>
<!DOCTYPE svg PUBLIC "-//W3C//DTD SVG 20010904//EN"
 "http://www.w3.org/TR/2001/REC-SVG-20010904/DTD/svg10.dtd">
<svg version="1.0" xmlns="http://www.w3.org/2000/svg"
 width="128.000000pt" height="128.000000pt" viewBox="0 0 128.000000 128.000000"
 preserveAspectRatio="xMidYMid meet">
<metadata>
Created by potrace 1.11, written by Peter Selinger 2001-2013
</metadata>
<g transform="translate(0.000000,128.000000) scale(0.100000,-0.100000)"
fill="#000000" stroke="none">
<path d="M1104 1256 c-3 -13 -4 -30 -3 -37 4 -16 -19 -60 -35 -71 -20 -13 2
-19 28 -7 23 11 28 9 46 -14 l21 -27 38 20 c45 22 52 36 44 84 -6 41 -25 60
-51 54 -10 -3 -23 1 -30 9 -20 21 -51 16 -58 -11z"/>
<path d="M200 1232 c-43 -40 -46 -67 -9 -94 l29 -22 -28 -23 c-32 -24 -98
-151 -107 -204 -3 -19 -12 -57 -19 -86 -8 -28 -10 -55 -6 -60 5 -4 11 -57 14
-118 2 -60 6 -110 7 -110 1 0 5 -29 13 -110 l5 -50 -17 30 c-8 17 -21 46 -28
65 -12 31 -13 32 -14 9 0 -14 14 -47 32 -75 18 -29 38 -81 49 -127 25 -113 61
-182 112 -211 47 -28 62 -28 100 -3 37 24 34 33 -10 29 -48 -4 -78 21 -94 80
-12 48 -2 319 12 297 4 -7 6 -16 4 -19 -2 -4 11 -35 28 -71 22 -43 38 -63 49
-61 8 1 20 -4 26 -11 12 -14 12 -14 -35 -75 -10 -12 -29 -24 -42 -27 -31 -6
-34 -10 -27 -32 9 -27 66 -28 115 -3 22 11 43 20 46 20 3 0 5 -20 5 -44 0 -27
5 -46 13 -49 9 -3 8 -13 -5 -40 l-18 -37 240 0 c132 0 240 2 240 4 0 3 -10 21
-21 41 -21 35 -20 50 4 50 8 0 12 18 12 47 0 25 3 49 8 54 4 4 7 3 7 -3 0 -6
18 -18 41 -27 22 -9 50 -25 61 -36 25 -23 36 -24 62 -5 19 14 14 35 -7 35 -7
0 -27 19 -45 42 -17 23 -57 67 -87 99 -30 31 -55 60 -55 64 0 4 16 25 35 47
20 21 43 54 52 73 16 33 43 55 43 35 0 -24 22 -7 37 27 44 106 59 284 33 392
-6 25 -11 49 -10 54 2 27 -105 176 -127 177 -6 0 -13 3 -15 8 -3 7 -73 43 -93
48 -5 1 -30 7 -55 13 -72 17 -180 13 -243 -8 -32 -11 -57 -17 -57 -14 0 3 -11
-2 -25 -11 -13 -9 -30 -16 -37 -16 -9 0 -10 2 -2 8 20 12 -2 49 -33 55 -35 7
-49 -4 -58 -46 -4 -20 -9 -26 -12 -17 -9 24 -44 70 -53 70 -5 0 -23 -13 -40
-28z m65 -52 c14 -22 25 -42 25 -45 0 -8 -36 2 -67 17 -21 10 -21 13 -7 39 8
16 17 29 19 29 3 0 16 -18 30 -40z m96 -2 c-13 -35 -36 -49 -26 -17 3 13 9 32
12 43 3 11 9 14 14 9 6 -6 6 -19 0 -35z"/>
<path d="M35 681 c-3 -5 -1 -12 5 -16 5 -3 10 1 10 9 0 18 -6 21 -15 7z"/>
<path d="M30 570 c0 -44 3 -80 8 -80 4 0 7 36 7 80 0 44 -3 80 -7 80 -5 0 -8
-36 -8 -80z"/>
</g>
</svg>
